<?xml version="1.0" encoding="utf-8"?>
<svg viewBox="0 0 567 567" xmlns="http://www.w3.org/2000/svg" xmlns:bx="https://boxy-svg.com">
  <defs>
    <bx:grid x="0" y="0" width="100" height="100"/>
  </defs>
  <path d="M 496.42 0.577 L 284.19 212.722 L 425.084 213.578 L 425.544 213.118 L 426.01 213.584 L 426.069 213.584 L 426.04 213.613 L 567.294 354.811 L 354.727 567.294 L 71.227 567.294 L 283.25 355.355 L 142.493 354.363 L 142.044 354.812 L 141.588 354.357 L 141.498 354.356 L 141.543 354.311 L 0.294 213.118 L 213.202 0.294 L 496.137 0.294 L 496.42 0.577 Z" style="paint-order: fill; fill: rgb(255, 149, 0);"/>
  <path d="M 233.912 406.279 C 233.57 372.743 222.51 337.408 232.908 305.291 C 240.354 282.68 266.507 271.628 283.145 254.996 C 291.442 246.703 299.772 230.05 308.141 217.5 C 312.33 211.219 316.575 205.916 320.822 203.263 C 322.964 201.926 325.214 201.223 327.399 201.429 C 329.577 201.633 331.826 202.756 333.971 204.899 C 345.909 216.832 345.93 233.802 342.97 251.763 C 340.011 269.719 334.118 288.822 334.118 305.447 C 334.118 338.773 344.425 373.885 334.093 405.795 C 326.68 428.318 301.187 439.874 284.889 456.719 C 276.763 465.117 268.676 481.912 260.513 494.587 C 256.427 500.929 252.278 506.29 248.105 508.99 C 245.999 510.353 243.778 511.077 241.615 510.89 C 239.459 510.703 237.225 509.591 235.088 507.455 C 223.076 495.447 222.881 478.377 225.645 460.303 C 228.407 442.234 234.082 423.01 233.912 406.279 Z M 226.636 460.454 C 223.885 478.449 224.033 494.987 235.797 506.746 C 237.821 508.77 239.729 509.72 241.702 509.891 C 243.669 510.062 245.562 509.442 247.56 508.15 C 251.594 505.54 255.608 500.35 259.67 494.044 C 267.799 481.421 275.933 464.534 284.17 456.021 C 300.596 439.045 325.999 427.707 333.14 405.484 C 343.467 373.871 333.115 338.915 333.115 305.447 C 333.115 288.674 339.034 269.489 341.981 251.601 C 344.928 233.72 344.949 217.291 333.262 205.609 C 331.23 203.577 329.303 202.613 327.305 202.425 C 325.313 202.239 323.388 202.842 321.353 204.113 C 317.246 206.679 313.14 211.812 308.975 218.056 C 300.64 230.554 292.263 247.299 283.855 255.705 C 267.082 272.471 241.023 283.297 233.86 305.602 C 223.465 337.412 234.57 372.587 234.914 406.269 C 235.087 423.146 229.388 442.452 226.636 460.454 Z" style="fill: none;"/>
  <path style="fill: rgb(204, 119, 0);" d="M 284.826 212.23 L 142.16 354.292 L 282.52 354.899 L 426.17 213 L 284.826 212.23 Z" transform="matrix(0.999999, 0.001087, -0.001087, 0.999999, 0.308403, -0.30872)"/>
</svg>