<?xml version="1.0" encoding="utf-8"?>
<svg viewBox="0 0 900 900" xmlns="http://www.w3.org/2000/svg" xmlns:bx="https://boxy-svg.com">
  <defs>
    <bx:grid x="0" y="0" width="100" height="100"/>
  </defs>
  <path d="M 662.132 167.328 L 308.579 520.882 L 167.158 379.46 L 379.572 167.046 L 661.85 167.046 L 662.132 167.328 Z" style="paint-order: fill; fill: rgb(255, 149, 0);"/>
  <path d="M 591.421 379.46 L 732.842 520.881 L 520.768 732.955 L 237.926 732.955 L 591.421 379.46 Z" style="paint-order: fill; fill: rgb(255, 149, 0);"/>
  <path style="fill: rgb(204, 119, 0);" d="M 399.698 599.811 L 499.784 500.273 L 500.003 300.4 L 400.003 400.046 L 399.698 599.811 Z" transform="matrix(0.707107, 0.707107, -0.707107, 0.707107, 450.030799, -186.259491)"/>
  <path d="M 400.527 572.543 C 400.186 539.072 389.152 503.805 399.525 471.75 C 406.954 449.182 433.046 438.151 449.646 421.551 C 457.924 413.274 466.234 396.653 474.584 384.127 C 478.763 377.859 482.998 372.566 487.235 369.918 C 489.372 368.583 491.617 367.882 493.797 368.087 C 495.97 368.291 498.214 369.412 500.354 371.551 C 512.264 383.461 512.285 400.398 509.332 418.325 C 506.38 436.246 500.5 455.312 500.5 471.905 C 500.5 505.167 510.784 540.212 500.476 572.06 C 493.08 594.54 467.646 606.074 451.386 622.886 C 443.279 631.268 435.21 648.031 427.066 660.681 C 422.99 667.011 418.85 672.362 414.687 675.057 C 412.586 676.417 410.37 677.14 408.212 676.953 C 406.061 676.766 403.832 675.656 401.7 673.525 C 389.716 661.54 389.522 644.503 392.279 626.463 C 395.035 608.429 400.697 589.242 400.527 572.543 Z M 393.268 626.614 C 390.523 644.574 390.671 661.081 402.408 672.817 C 404.427 674.837 406.331 675.785 408.299 675.956 C 410.261 676.127 412.15 675.508 414.143 674.218 C 418.168 671.613 422.173 666.433 426.225 660.139 C 434.335 647.541 442.451 630.686 450.668 622.19 C 467.056 605.246 492.4 593.93 499.525 571.75 C 509.828 540.198 499.5 505.309 499.5 471.905 C 499.5 455.165 505.405 436.016 508.345 418.163 C 511.285 400.316 511.306 383.919 499.646 372.259 C 497.619 370.231 495.697 369.269 493.703 369.082 C 491.716 368.896 489.795 369.498 487.765 370.766 C 483.668 373.327 479.571 378.45 475.416 384.682 C 467.1 397.156 458.743 413.869 450.354 422.259 C 433.62 438.993 407.622 449.798 400.475 472.06 C 390.104 503.809 401.184 538.916 401.527 572.533 C 401.699 589.378 396.014 608.647 393.268 626.614 Z" style="fill: none;"/>
</svg>