<?xml version="1.0" encoding="utf-8"?>
<svg viewBox="0 0 900 900" xmlns="http://www.w3.org/2000/svg" xmlns:bx="https://boxy-svg.com">
  <defs>
    <bx:grid x="0" y="0" width="100" height="100"/>
  </defs>
  <rect width="200" height="412.878" style="paint-order: fill; fill: rgb(255, 149, 0);" transform="matrix(0.707107, 0.707106, -0.707106, 0.707107, 449.067017, 70.1297)" bx:origin="0.478549 0.505006"/>
  <rect x="220" y="198.598" width="200" height="397.195" style="paint-order: fill; fill: rgb(255, 149, 0);" transform="matrix(0.707107, 0.707106, -0.707106, 0.707107, 566.247559, 66.085129)"/>
  <path style="fill: rgb(204, 119, 0);" d="M 389.659 582.43 L 489.745 482.892 L 489.964 283.019 L 389.964 382.665 L 389.659 582.43 Z" transform="matrix(0.707107, 0.707107, -0.707107, 0.707107, 434.800234, -184.251617)"/>
  <path d="M 400.527 500.638 C 400.186 467.167 389.152 431.9 399.525 399.845 C 406.954 377.277 433.046 366.246 449.646 349.646 C 457.924 341.369 466.234 324.748 474.584 312.222 C 478.763 305.954 482.998 300.661 487.235 298.013 C 489.372 296.678 491.617 295.977 493.797 296.182 C 495.97 296.386 498.214 297.507 500.354 299.646 C 512.264 311.556 512.285 328.493 509.332 346.42 C 506.38 364.341 500.5 383.407 500.5 400 C 500.5 433.262 510.784 468.307 500.476 500.155 C 493.08 522.635 467.646 534.169 451.386 550.981 C 443.279 559.363 435.21 576.126 427.066 588.776 C 422.99 595.106 418.85 600.457 414.687 603.152 C 412.586 604.512 410.37 605.235 408.212 605.048 C 406.061 604.861 403.832 603.751 401.7 601.62 C 389.716 589.635 389.522 572.598 392.279 554.558 C 395.035 536.524 400.697 517.337 400.527 500.638 Z M 393.268 554.709 C 390.523 572.669 390.671 589.176 402.408 600.912 C 404.427 602.932 406.331 603.88 408.299 604.051 C 410.261 604.222 412.15 603.603 414.143 602.313 C 418.168 599.708 422.173 594.528 426.225 588.234 C 434.335 575.636 442.451 558.781 450.668 550.285 C 467.056 533.341 492.4 522.025 499.525 499.845 C 509.828 468.293 499.5 433.404 499.5 400 C 499.5 383.26 505.405 364.111 508.345 346.258 C 511.285 328.411 511.306 312.014 499.646 300.354 C 497.619 298.326 495.697 297.364 493.703 297.177 C 491.716 296.991 489.795 297.593 487.765 298.861 C 483.668 301.422 479.571 306.545 475.416 312.777 C 467.1 325.251 458.743 341.964 450.354 350.354 C 433.62 367.088 407.622 377.893 400.475 400.155 C 390.104 431.904 401.184 467.011 401.527 500.628 C 401.699 517.473 396.014 536.742 393.268 554.709 Z" style="fill: none;"/>
</svg>